/* XPM */
static char *result[] = {
/* columns rows colors chars-per-pixel */
"48 48 13 1 ",
"  c #153A36",
". c #2C3434",
"X c #1F4700",
"o c #235300",
"O c #337B00",
"+ c #0A5158",
"@ c #4D9A04",
"# c #71D314",
"$ c #0F7D88",
"% c #0FA1B0",
"& c #DEF09F",
"* c #AAF6FE",
"= c None",
/* pixels */
"================================================",
"================================================",
"=======================================X========",
"=====XX====X=========================XXX========",
"=======XXXXXo=====================XXX=X=========",
"==========oXooX==================XXXX=X=========",
"=====XX====oooXXX=========XX======XX============",
"======oXX===ooo============XO=oo================",
"=====XOoXXX===oo==========XXOoo=================",
"=====OOoo=X===oo====XX===XXOoo==================",
"=====XoOOo=X=========XX===X=oOX=================",
"======XOOoo=X======XX====X=o=XXooo==+++=========",
"======oo=OoXX=====XXX===X=o=XXooo==+%%$+========",
"========oooXXX===XX======XooXX=o===+%%$+========",
"==========o==XXX==X=====X===XXo====+%%$+========",
"==========oo=XXX==X=====XX=XX======+%%$+========",
"============oo=XXX=========XX=====+%%%$$+=======",
"================XXX========X=====+%*%%%$$+======",
"========  ============X====XX====+%*%%%$$+.=====",
"======= @@ ==========XX=====XX===+%*%%%$$+.=====",
"====== ##@@ =========X=======XX==+%*%%%$$+.=====",
"======= ##@@   .=====X========XX=+%*%%%$$+.=====",
"======== ##@@@@ .====X=========X=+%*%%%$$+.=====",
"========= ####@@ .===X=========XX+%*%%%$$+.==X==",
"========= #####@@ .==X=======oXX=+%*%%%$$+.=XX==",
"========= &#####@@ .=X=======o===+%*%%%$$+.=X===",
"========= #&#####@@ .=========o==+%**%%$$+.=X===",
"========== #&#####@@ .========o==+$$$$$$$+.X====",
"=========== #&#####@@ .====o==o===+++++++.XX====",
"==========X= #&#####@@ .===oo=Xo=====....=XX====",
"==========XXX #&#####@@ =====oooo===============",
"============XX #&####@ .===XX==oo========OO=====",
"=============== #&#&@ .==O==XX==========OOOo====",
"=========XXXXXXX #&@ .==OO==XX==========ooOoo===",
"===XXXXXX======== @ .===o=O=XXXX==X=====O=o=====",
"================== =====oo=O=X=XXXX====OOO======",
"========================oo====XX=ooo====OOO=====",
"==========X=o======OO=O=ooo===XX=oo======O======",
"=========X=X=oo==OO==OO==o====oXX==XX====O======",
"==========XX=Xoo=======XXXo==ooX===OOX==OO======",
"==========XXXXXoo======XX======X==OOOX=O========",
"===========XXXXXoo=XX==========XOOOO=XX=========",
"============XX===oXXX=========OO=O===XX=========",
"===============================OOXXXX===========",
"=================================X=XXXX=========",
"================================================",
"================================================",
"================================================"
};
