/* XPM */
static char *result[] = {
/* columns rows colors chars-per-pixel */
"48 48 11 1 ",
"  c #1F4700",
". c #235300",
"X c #337B00",
"o c #003D7A",
"O c #C37D10",
"+ c #4D9A04",
"@ c #004793",
"# c #005599",
"$ c #007FBB",
"% c #ACF0FA",
"& c None",
/* pixels */
"&&&&&&&&&&&&&&&&&&&&&&&&&&&&&&&&&&&&&&&&&&&&&&&&",
"&&&&&&&&& &&&&&&&&&&&&&&&&&&&&&&&&&&&&&&&&&&&&&&",
"&&&&&&&&&  XX&&&O&&&&&&&&&&&&&&&&&&&&&&&&&&&&&&&",
"&&&OO&&&&&&X. &OO&&&&&&&&&&&&&&&&&&oooo&&&&&&&&&",
"&&&&OX&&&&X.  .O&&&&&&&&&&&&&&&&oooo&#ooo&&&&&&&",
"&&& OOX&&.X &&O&& &&&&&&&&ooooooo#######oo&&&&&&",
"&&&  OX+&.X XXO   ooooo&&oo##$@$$@@@@@@$##oo&&&&",
"&&&& O.X+X  XO   oo###oooo###$@#$$$$@@@$###o&&&&",
"&&&&& OX+  X.&  oo#$########$@##$###%##@$###o&&&",
"&&&&&  .+  X.  oo$@@$$%%$###$@##$###%###$###o&&&",
"&&&&&& .+ &X. oo@$@@$$@%%$####@#$@@@$##$@@##o&&&",
"&&&&&&&.X+X.  o@$##@###@#$####@#$@@##$$$$@@@o&&&",
"&&&&&&& X+X.  o@$##@###@####@#@#$##@@$$#$###o&&&",
"&&&&&&&&.X . oo##$#@%$$@####$$@@#$##@@$@$##o&&&&",
"&&&&&&&&.X&  oo##$#@%$##@##@##%@$##$#@$#$$o&&&&&",
"&&&.&&& . X &oo$#$#@##$$@##@##%$$@#$#$%##$o&&&&&",
"&&  .XX . X &oo@@$##@##$$###@###$#@#$$%@##o&&&&&",
"&&&  .X .   &oo##@$$##@#$###@@#$$#@##$$@##o&&&&&",
"&&&&OOXX.   &oo##@%$$#@#$####$$$$$##@##$@@o&&&&&",
"&&&XXO.XX.  &oo$##%$#$#@$####$##@$$##@#$#$o&&&&&",
"&&..XOO.X.  &oo$$#$@#$##$@$$$$@@@##$%@#$###o&&&&",
"&& .XXO.X. &oo##$@$@@##$#@@#$$@##@$$%@#$###o&&&&",
"&& ..XO X. ooo##$#$$@###$#@##$###@###@##$@o&&&&&",
"&&O .X&OX&ooo##$@#########@##@$$#@###@##$@o &&&&",
"&&OO .XOX&oo#$@$$@@@@@@$######$$%%@$$@@$@#  &&&&",
"&&&O .XO.oo##$@#$$$$@@@$####$#@@$%%$$@@$@o &&&&&",
"&&&O .XO&oo#$@##$###%##@$###$########$##o& &&&&&",
"&&.XO X oo##$@##$###%###$######%$######$o& &&&&&",
"&&..O  ooo####@#$@@@$##$@@#####%$##@@@$$$o  &&&&",
"&&&.X  oo$####@#$@@##$$$$@@@##@##$$@##$###o &&&&",
"&& &X ooo###@#@#$##@@$$#$###$##@##$$$$$###  &&&&",
"&&  .Xoo####$$@@#$##@@$@$###@$$##@#$$#@@## &&&&&",
"&&  .Xo#@##@##%@$##$#@$#$$##@%$$#@#$###@## &&&&&",
"&&&  X&o@##@##%$$@#$#$%##$###%$#$#@$$%##@# &&&&&",
"&&&& .Xo$###@###$#@#$$%@##$$#$@#$##$@%##@# &&&&&",
"&&&&  Xo$###@@#$$#@##$$@##$$@$@@##$#@@$$## &&&&&",
"&&&&& .o$####$$$$$##@##$@@#$#$$@@##$#@#@#o &&&&&",
"&&&&&  o$####$##@$$##@#$#$#$$$$##@@$#@###o &&&&&",
"&&&&&& o$@$$$$@@@##$%@#$###@$##$@@@$#@###o &&&&&",
"&&&&&& o#@@#$$@##@$$%@#$#######%###$##@$#o &&&&&",
"&&&&&&&o$#@##$###@###@##$@#$@##%###$##@$#o &&&&&",
"&&&&&&&&o#@##@$$#@###@##$@##$@@@$$$$#@$##o &&&&&",
"&&&&&&&&oo&###$$%%@$$@@$@###$@@@@@@$$@$##o &&&&&",
"&&&&&&&&&&ooo#@@$%%$$@@$@######ooo#@$###  &&&&&&",
"&&&&&&&&&&&&oo#######$#oooo&##oo&ooooooo&&&&&&&&",
"&&&&&&&&&&&&&oooooo#ooo&&&ooooo&&&&&&&&&&&&&&&&&",
"&&&&&&&&&&&&&&&&&&ooo&&&&&&&&&&&&&&&&&&&&&&&&&&&",
"&&&&&&&&&&&&&&&&&&&&&&&&&&&&&&&&&&&&&&&&&&&&&&&&"
};
