/* XPM */
static char *result[] = {
/* columns rows colors chars-per-pixel */
"48 48 197 2 ",
"   c black",
".  c #0B0905",
"X  c #05090E",
"o  c #0C0C0C",
"O  c #110D06",
"+  c #16120A",
"@  c #080D14",
"#  c #131314",
"$  c #181612",
"%  c #1B1B1B",
"&  c #211B0F",
"*  c #362D1A",
"=  c #2C2414",
"-  c #111F2D",
";  c #0D1922",
":  c #11202B",
">  c #152539",
",  c #2C2C2D",
"<  c #23313F",
"1  c #323333",
"2  c #3E3E3E",
"3  c #383737",
"4  c #222B33",
"5  c #48361E",
"6  c #413F2A",
"7  c #4E4B2F",
"8  c #584426",
"9  c #4C4537",
"0  c #45433D",
"q  c #48443F",
"w  c #52493A",
"e  c #594A33",
"r  c #604F2C",
"t  c #6E5931",
"y  c #6B583E",
"u  c #745E3D",
"i  c #1B3146",
"p  c #2E3D4E",
"a  c #3D3D40",
"s  c #233D56",
"d  c #2C445C",
"f  c #3C4B5A",
"g  c #294866",
"h  c #3F576E",
"j  c #2B4E73",
"k  c #2E547A",
"l  c #395775",
"z  c #3A4D61",
"x  c #444445",
"c  c #4B4C4C",
"v  c #4A4640",
"b  c #5A5345",
"n  c #464E56",
"m  c #45515C",
"M  c #535655",
"N  c #56585A",
"B  c #675843",
"V  c #715E45",
"C  c #625E56",
"Z  c #7C6442",
"A  c #766747",
"S  c #776950",
"D  c #676357",
"F  c #43586C",
"G  c #49596A",
"H  c #415970",
"J  c #525F73",
"K  c #5F6365",
"L  c #586675",
"P  c #646463",
"I  c #6B6B6B",
"U  c #676869",
"Y  c #6C706C",
"T  c #787361",
"R  c #666B70",
"E  c #61707F",
"W  c #747474",
"Q  c #7B7B7C",
"!  c #936E3C",
"~  c #96743F",
"^  c #86693A",
"/  c #8D734F",
"(  c #967547",
")  c #847152",
"_  c #A47F4B",
"`  c #7C8276",
"'  c #998551",
"]  c #AE8449",
"[  c #AB8247",
"{  c #B78B4D",
"}  c #A48D52",
"|  c #AA985C",
" . c #86816B",
".. c #898369",
"X. c #92896A",
"o. c #9A956B",
"O. c #948E76",
"+. c #90887C",
"@. c #9D927C",
"#. c #85887C",
"$. c #A9A36B",
"%. c #B6A667",
"&. c #BEB26D",
"*. c #BCB577",
"=. c #395E87",
"-. c #3B648E",
";. c #3D6B9E",
":. c #386593",
">. c #3E6EA2",
",. c #576E88",
"<. c #446C96",
"1. c #44719D",
"2. c #5A789A",
"3. c #4C6581",
"4. c #667789",
"5. c #727A81",
"6. c #7C7F85",
"7. c #4377AC",
"8. c #4777A7",
"9. c #5A7DA3",
"0. c #447CB4",
"q. c #497DB3",
"w. c #7C8894",
"e. c #798189",
"r. c #4681BA",
"t. c #4F83B9",
"y. c #5889B7",
"u. c #6A89AA",
"i. c #628AB1",
"p. c #658FB8",
"a. c #6793BD",
"s. c #568EC4",
"d. c #528FC9",
"f. c #598EC0",
"g. c #5C97D1",
"h. c #5E9CD7",
"j. c #5794CE",
"k. c #6B9DCC",
"l. c #6394C3",
"z. c #719FCB",
"x. c #609AD3",
"c. c #6FA3D6",
"v. c #64A1DB",
"b. c #67A0D6",
"n. c #70A8DC",
"m. c #6EACE9",
"M. c #69A7E3",
"N. c #73AEE5",
"B. c #74AFE8",
"V. c #73B2EE",
"C. c #7DB3E4",
"Z. c #75B5F2",
"A. c #79BAF8",
"S. c #7CB8F0",
"D. c #868586",
"F. c #8A8A8C",
"G. c #83858B",
"H. c #919085",
"J. c #9A958E",
"K. c #8E949B",
"L. c #919295",
"P. c #959699",
"I. c #979A9D",
"U. c #A59C89",
"Y. c #B0AC8D",
"T. c #8A9DB4",
"R. c #A8A9AB",
"E. c #BDB6A8",
"W. c #ACAEB4",
"Q. c #B6B6BA",
"!. c #CBC096",
"~. c #D2C390",
"^. c #DDD0A1",
"/. c #E6D9A7",
"(. c #EEDFA5",
"). c #E8DBA8",
"_. c #EFE1A6",
"`. c #F8E9B2",
"'. c #82A2C1",
"]. c #B9BAC1",
"[. c #ADBDC6",
"{. c #80BDF8",
"}. c #88B8E6",
"|. c #A5C4DB",
" X c #C0C1C3",
".X c #C4C5CA",
"XX c #C8C9CE",
"oX c #CBCDD1",
"OX c #DDDDDD",
"+X c #D2D2D6",
"@X c #D4D0C8",
"#X c #ECECEC",
"$X c #E6E5E5",
"%X c #F1F0EF",
"&X c #F8F8F8",
"*X c #F3F3F4",
"=X c None",
/* pixels */
"=X=X=X=X=X=X=X=X=X=X=X=X=X=X=X=X=X=X=X=X=X=X=X=X=X=X=X=X=X=X=X=X=X=X=X=X=X=X=X=X=X=X=X=X=X=X=X=X",
"=X=X=X=X=X=X=X=X=X=X=X=X=X=X=X=X=X=X=X=X=X=X=X=X=X=X=X=X=X=X=X=X=X=X=X=X=X=X=X=X=X=X=X=X=X=X=X=X",
"=X=X=X=X=X=X=X=X=X=X=X=X=X=X=X=X=X=X=X=X=X=X=X=X=X=X=X=X=X=X=X=X=X=X=X=X=X=X=X=X=X=X=X=X=X=X=X=X",
"=X=X=X=X=X=X=X=X=X=X=X=X=X=X=X=X=X=X=X=X=X=X=X=X=X=X=X=X=X=X=X=X=X=X=X=X=X=X=X=X=X=X=X=X=X=X=X=X",
"=X=X=X=X=X=X=X=X=X=X=X=X=X=X=X=X=X=X=X=X=X=X=X=X=X=X=X=X=X=X=X=X=X=X=X=X=X=X=X=X=X=X=X=X=X=X=X=X",
"=X=X=X=X=X=X=X=X=X=X=X=X=X=X=X=X=X=X=X=X=X=X=X=X=X=X=X=X=X=X=X=X=X=X=X=X=X=X=X=X=X=X=X=X=X=X=X=X",
"=X=X=X=X=X=X=X=X=X=X=X=X=X=X=X=X=X=X=X=X=X=X=X=X=X=X=X=X=X=X=X=X=X=X=X=X=X=X=X=X=X=X=X=X=X=X=X=X",
"=X=X=X=X=X=X=X=X=X=X=X=X=X=X=X=X=X=X=X=X=X=X=X=X=X=X=X=X=X=X=X=X=X=X=X=X=X=X=X=X=X=X=X=X=X=X=X=X",
"=X=X=X=X=X=X=X=X=X=X=X=X=X=X=X=X=X=X=X=X=X=X=X=X=X=X=X=X=X=X=X=X=X=X=X=X=X=X=X=X=X=X=X=X=X=X=X=X",
"=X=X=X=X=X=X=X=X=X=X=X=X=X=X=X=X=X=X=X=X=X=X=X=X=X=X=X=X=X=X=X=X=X=X=X=X=X=X=X=X=X=X=X=X=X=X=X=X",
"=X=X=X=X=X=X=X=X=X=X=X=X=X=X=X=X=X=X=X=X=X=X=X=X=X=X=X=X=X=X=X=X=X=X=X=X=X=X=X=X=X=X=X=X=X=X=X=X",
"=X=X=X=X=X=X=X=X=X=X=X=X=X=X=X=X=X=X=X=X=X=X=X=X=X=X=X=X=X=X=X=X=X=X=X=X=X=X=X=X=X=X=X=X=X=X=X=X",
"=X=X=X=X=X=X=X=X=X=X=X=X=X=X=X=X=X=X=X=X=X=X=X=X=X=X=X=X=X=X=X=X=X=X=X=X=X=X=X=X=X=X=X=X=X=X=X=X",
"=X=X=X=X=X=X=X=X=X=X=X=X=X=X=X=X=X=X=X=X=X=X=X=X=X=X=X=X=X=X=X=X=X=X=X=X=X=X=X=X=X=X=X=X=X=X=X=X",
"=X=X=X=X=X=X=X=X=X=X=X=X=X=Xo 3 # =X=X=X=X=X=X=X=X=X=X=X=X=X=X=X=X=X=X=X=X=X=X=X=X=X=X=X=X=X=X=X",
"=X=X=X=X=X=X=X=X=X=X=X=X=X. , F.G.o =X  =X=X=X=X=X=X=X=X=X=X=X=X=X=X=X=X=X=X=X=X=X=X=X=X=X=X=X=X",
"=X=X=X=X=X=X=X=X=X=X=X=X=Xo W OX.XL.O ( 8 =X=X=X=X=X=X=X=X=X=X=X=X=X=X=X=X=X=X=X=X=X=X=X=X=X=X=X",
"=X=X=X=X=X=X=X=X=X=X=X=X=X, Q.$X*XK.3 B ~ & =X=X=X=X=X=X    =X=X=X      =X=X=X=X=X=X=X=X=X=X=X=X",
"=X=X=X=X=X=X=X=X=X=X=X=X=X=Xf R.K.Q.c b { ^ & =X=X=X=X. 8 { + =X=XI.$X#X% =X=X=X=X=X=X=X=X=X=X=X",
"=X=X=X=X=X=X=X=X=X=X=X=X=X=X=Xb P.Q.L.2 B u e $ =X+ * t ] _ ] # Q R.c I OX  =X=X=X=X=X=X=X=X=X=X",
"=X=X=X=X=X=X=X=X=X=X=X=X=X=X=X5 L G.x F.D.C 9 V = r t _ ( 0 ) N +XP.x M OX  =X=X=X=X=X=X=X=X=X=X",
"=X=X=X=X=X=X=X=X=X=X=X=X=X=X=X  y.p.x D.Q.@XE.) 9 t ] ( v x P N .XoXQ..XM =X=X=X=X=X=X=X=X=X=X=X",
"=X=X=X=X=X=X=X=X=X=X=X=X=X=X=Xl s.Z.k.k.u.I I l.p.e ( V 2 2 5.x 6..XXXc =X=X=X=X=X=X=X=X=X=X=X=X",
"=X=X=X=X=X=X=X=X=X=X=X=X=X=X=Xj m.A.A.A.V.y.x.A.J U Y.( b a e.I x c c u   =X=X=X=X=X=X=X=X=X=X=X",
"=X=X=X=X=X=X=X=X=X=X=X=X=X=X=X9.A.A.A.A.A.A.A.,.B U &XU.u 0 x 5.5.N x B   =X=X=X=X=X=X=X=X=X=X=X",
"=X=X=X=X=X=X=X=X=X=X=X=X=X=Xg A.A.A.A.A.A.n.V.A.N.4.OX&X&XX.0 a a 6 e o =X=X=X=X=X=X=X=X=X=X=X=X",
"=X=X=X=X=X=X=X=X=X=X=X=X=X  s V.A.x.A.A.n.w.z.Z.A.k.F.&X&X&XO.9 w B $ =X=X=X=X=X=X=X=X=X=X=X=X=X",
"=X=X=X=X=X=X=X=X=X=X=X  X g F V.A.;.Z.t.E OX}.Z.A.k.F.&X&X&X%XE.@.y e . =X=X=X=X=X=X=X=X=X=X=X=X",
"=X=X=X=X=X=X=X=X=X=X  k g -.,.A.A.M.1.n / |.}.2.j.k.F.&XF.I Q &X$XX.^ O =X=X=X=X=X=X=X=X=X=X=X=X",
"=X=X=X=X=X=X=X=X=X  =.r.7.G V.A.A.A.V.C.C.S.A.L Y.z.#XL.a.N.z.Q &X@.V u   =X=X=X=X=X=X=X=X=X=X=X",
"=X=X=X=X=X=X=X=X=X@ j :.8.G Z.A.V.A.A.A.Z.V.4.*.$.Y R.i.A.A.A.k.D.*X) Z   =X=X=X=X=X=X=X=X=X=X=X",
"=X=X=X=X=X=X=X=X=Xj >.a.:.f -.b.t.V.c.c.u.Y o.$.D C I.y.m.m.A.c.F.|.S )   =X=X=X=X=X=X=X=X=X=X=X",
"=X=X=X=X=X=X=X=X=XG <.T.j s   i 9.|.H.H.O.X. . .).T H d.g.g.v.A.p.w.#.u   =X=X=X=X=X=X=X=X=X=X=X",
"=X=X=X=X=X=X=X=X=X1 < > =X=X=X=X# T  . .+.*./.`.).` l.h.V.A.M.y.e.R.].J.  =X=X=X=X=X=X=X=X=X=X=X",
"=X=X=X=X=X=X=X=X=X=X=X=X=X=X=X=X=Xo !.!.^.`.`.`./.F v.Z.g.Z.N.M S J.].2 =X=X=X=X=X=X=X=X=X=X=X=X",
"=X=X=X=X=X=X=X=X=X=X=X=X=X=X=X=X  1 } %.`.`.`.| ( U |.M.Z.d.z l 0 H.|.# =X=X=X=X=X=X=X=X=X=X=X=X",
"=X=X=X=X=X=X=X=X=X=X=X=X=X=X=XX :.r.M ~.} } } (._.$.D.'.G n A.A.i.6., =X=X=X=X=X=X=X=X=X=X=X=X=X",
"=X=X=X=X=X=X=X=X=X=X=X=X=X=X=Xj r.r.0.K !./._.(.&.%.A m c.A.A.A.g.> =X=X=X=X=X=X=X=X=X=X=X=X=X=X",
"=X=X=X=X=X=X=X=X=X=X=X=X=X=X=Xj r.r.0.:.F #.o.%.| } ` k.A.A.A.A.g.g X =X=X=X=X=X=X=X=X=X=X=X=X=X",
"=X=X=X=X=X=X=X=X=X=X=X=X=X=X=X: >.r.>.>.r.1.4 * 7 7 d v.A.A.A.N.q.0.- =X=X=X=X=X=X=X=X=X=X=X=X=X",
"=X=X=X=X=X=X=X=X=X=X=X=X=X=X=X=X; f f r.<.p =X=X=X=Xi 7.M.A.Z.7.0.r.: =X=X=X=X=X=X=X=X=X=X=X=X=X",
"=X=X=X=X=X=X=X=X=X=X=X=X=X=X=X  F. XR.o X =X=X=X=X=X=Xk >.;.>.0.r.s =X=X=X=X=X=X=X=X=X=X=X=X=X=X",
"=X=X=X=X=X=X=X=X=X=X=X=X=X=X=X=X      =X=X=X=X=X=X=X=X# :.0.0.0.7.p =X=X=X=X=X=X=X=X=X=X=X=X=X=X",
"=X=X=X=X=X=X=X=X=X=X=X=X=X=X=X=X=X=X=X=X=X=X=X=X=X=X=XW 3.9.u.2.4.Q., =X=X=X=X=X=X=X=X=X=X=X=X=X",
"=X=X=X=X=X=X=X=X=X=X=X=X=X=X=X=X=X=X=X=X=X=X=X=X=X=X=X=X  D.#XW     =X=X=X=X=X=X=X=X=X=X=X=X=X=X",
"=X=X=X=X=X=X=X=X=X=X=X=X=X=X=X=X=X=X=X=X=X=X=X=X=X=X=X=X=X=XM =X=X=X=X=X=X=X=X=X=X=X=X=X=X=X=X=X",
"=X=X=X=X=X=X=X=X=X=X=X=X=X=X=X=X=X=X=X=X=X=X=X=X=X=X=X=X=X=X=X=X=X=X=X=X=X=X=X=X=X=X=X=X=X=X=X=X",
"=X=X=X=X=X=X=X=X=X=X=X=X=X=X=X=X=X=X=X=X=X=X=X=X=X=X=X=X=X=X=X=X=X=X=X=X=X=X=X=X=X=X=X=X=X=X=X=X"
};
